<?xml version="1.0" encoding="utf-8"?>
<!-- Generator: Adobe Illustrator 19.0.0, SVG Export Plug-In . SVG Version: 6.00 Build 0)  -->
<svg version="1.1" id="Capa_1" xmlns="http://www.w3.org/2000/svg" xmlns:xlink="http://www.w3.org/1999/xlink" x="0px" y="0px"
	 viewBox="0 0 311.8 425.2" style="enable-background:new 0 0 311.8 425.2;" xml:space="preserve">
<g id="XMLID_21_">
	<path id="XMLID_19_" d="M152,267.9c-2.5,0.2,1.5-45.8-22.7-84c-10.4-16.4-21-23.6-25.8-26.4c-17-10.2-34.4-9.7-37.9-9.7
		c-8.2,0-15.6,1.6-31.8,8.7c-8.7,3.8-25,20.3-28.5,41.1c-0.7,4.1-4.6,27.4,11.5,46c3.2,3.7,11.7,13.4,26.3,16.1
		c3.1,0.6,17.8,3.3,30.9-6.3c2.3-1.7,13.7-10.8,14.8-26.7c0.6-8.5-4-16.4-5.1-18.2c-2.4-3.8-5-6.7-7-7.6c-6.4-3.2-11.2-4-14-3.8
		c0,0,0,0,0,0c-6.9,0-8.4,0.5-8.4,0.5s-3.3,0.7-5.3,2.3c-1.9,1.5-3,3.6-3.1,4.7c-0.2,1.1-0.1,2.2,0.6,2.7c0.7,0.6,1.2,0.9,2.7,0.9
		c2,0,3.1-0.5,4.9-0.1c2.9,0.7,5,1.2,6.4,3.2c2.3,3.4,3.1,7.5,0.9,10.6c-2.6,3.5-7.9,4.6-9.6,4.7c-7.2,0.5-8.6,0-12.6-4.7
		c-6.5-7.5-3.6-17.2-1.9-20.8c5.6-12.2,17.5-16.8,18.9-17.2c14.2-4.4,26.8,3.8,29.3,5.5c18.1,11.8,21.3,42.4,18.3,61.3
		c0,0,11.4-3.7,24.4-0.2c16.8,4.5,23.1,30.9,23.1,30.9c0.4,0,0.7,0,1.1-0.1c0,0,6.3-40.7,47.5-28.9c0.7-6.5,0.1-13.3,1.6-23.3
		c1.7-11,6.5-19.3,9.8-24.7c0.7-1,13.9-17.6,33.9-16.1c13,1,20.5,9.1,22.7,11.4c8.2,14.8,4.1,26.6-3,32.3c-1.4,1.2-1.9,2.4-6.8,3
		c-3.1-0.4-4.9-0.3-8.2-3c-0.8-0.7-3.1-2.6-4.1-6c-0.4-1.2-1.6-5.3,0.8-8.5c2.2-3,6.1-3.2,7.1-3.3c4.5-0.2,6.7,2.8,8.5,1.6
		c1.5-1,1.4-3.9,0.8-5.7c-1.2-3.8-5.1-5.5-7.7-6.6c-4.6-2-8.9-2-11.8-1.6c-1.9,0.3-14.3,2.2-20.8,13.1c-2.8,4.7-3.2,9.1-3.6,12.6
		c-0.2,2.1-0.9,10.3,2.2,17.9c5.5,13.3,21.2,20.6,34.5,21.3c18.6,1,31.1-11.1,33.4-13.3c5.1-6.4,13.3-18.9,14.8-36.1
		c0.4-5.2,0.1-9.1,0-10.2c-2.2-23.1-19.5-37.9-22.7-40.6c-15.7-13-33-14.8-40.5-15c-21.8-0.7-37.1,9.4-42.1,12.9
		c-15.2,10.4-22.6,24.1-28.7,35.3c-4.1,7.6-6.8,14.4-8.5,19.2c-3.4,9.9-4.8,17.8-5.5,23.3c-0.1,0.7-0.9,7.8-2.3,17.1
		C152.5,267.4,152.2,267.8,152,267.9z"/>
	<path id="XMLID_18_" d="M132.7,298.4c-0.8-12.8-11.5-35.6-24.2-36.3c-2.3-0.1-4.1,2.5-3.6,9.3C105.4,278,132.8,299.9,132.7,298.4z"
		/>
	<path id="XMLID_17_" d="M103.7,257c0.5-0.6,0.4-1.5-0.2-2c-1.1-1-2.5-2.1-5-3.8c-3.9-2.7-6-5.7-7.7-4.7c-1.3,0.8-6.4,10.2-6.3,20.2
		c0.1,8.1,9.6,17.7,17.7,23.9c0.1,0.1,0.2,0,0.2-0.1c0.8-2.5,3.6-8.2,2.5-9.5c-2-2.4-3.4-3-4.9-5.8c-0.5-0.9-0.9-2.9-1-4.4
		c-0.2-4.4,1.3-8.3,2.4-10.4C102.2,259.1,103,257.9,103.7,257z"/>
	<path id="XMLID_16_" d="M138.1,296c1.8-1.4,7.7-5.9,11.5-7.4c0.2-0.1,0.3-0.2,0.3-0.4c-0.9-16.5-22.7-34.4-37.6-30.8
		c-6.8,1.6,20.9,1.9,25.1,38.4C137.5,296.1,137.9,296.2,138.1,296z"/>
	<path id="XMLID_15_" d="M159.1,287.9c3.7,2,6.3,1.5,11,8.4c0.5,0.7,1.6,0.8,2.1,0.1c0.1-0.1,0.1-0.2,0.1-0.3
		c1-38.3,25.6-35.2,25.3-37c-1.3-6.7-31.5-2.7-39.1,27.4C158.3,287,158.6,287.6,159.1,287.9z"/>
	<path id="XMLID_14_" d="M109.2,287.4c-1.2-1.1-5.1,7.5-3.9,7.9c3.8,1.5,12.2,15.6,25.7,12.5C132.8,307.4,114.5,291.2,109.2,287.4z"
		/>
	<path id="XMLID_13_" d="M176.7,297.6c-1,6,22.8-15.3,24.6-19.3c6.8-15.9-5.6-15.8-13.8-7.3C180.1,278.6,177.6,292.3,176.7,297.6z"
		/>
	<path id="XMLID_12_" d="M207.7,257.6c3.4-2,6.8-3.9,10.1-5.9c0.6-0.3,1.3-0.1,1.5,0.5c10.8,23.7-9.7,42.5-11.3,40.9
		c-1.8-2.9-5.8-7.6-3.8-9.7c6.7-7,6.9-12.7,2.8-24C206.8,258.7,207.1,257.9,207.7,257.6z"/>
	<path id="XMLID_11_" d="M139,310.5l3.4,41c2.4,4.9,17,10.7,22.9,0.7l4-43.9c0-3.1-0.2-4.1-0.3-4.3c-4.4-7-15-20.4-28.5-1.4
		C138.6,305.2,139,306.9,139,310.5z"/>
	<path id="XMLID_10_" d="M133.7,313.9c0-1.1-1.1-1.8-2.2-1.8c-19.5,0.7-25.6-14.5-26.2-12.7c-3.1,9.6,3.9,17,13.6,24.6
		c7.9,6.2,17.6,26,17.6,24.7C136,327.6,133.9,328.8,133.7,313.9z"/>
	<path id="XMLID_9_" d="M133.2,353.4c0-0.4-0.1-0.8-0.4-1.2c-3-3.5-5.9-9-8.6-12.7c-4.7-6.5-8-10-7.8-7.8c0.1,0.7,3.1,6.8,6.6,18.1
		c1.1,3.5,2.8,7.8,4.2,12.4c2.9,9.6,4.8,15,5.9,16.4C134,379.7,133.5,357.6,133.2,353.4z"/>
	<path id="XMLID_8_" d="M143.5,361.7c0.3-0.1,0.4-0.5,0.3-0.8c-1.2-2.5-4.5-5-5.7-5c-0.9,0.1-2.2,3.7-2.1,4.9
		C136.2,361.7,139.7,363.5,143.5,361.7z"/>
	<path id="XMLID_7_" d="M149.2,363.4c-3.1,1.1-3.7,3.2-6.1,3.3c-1.1,0-2-0.2-3.4-0.1c0,0-1.3-0.2-1.8,1.1
		c-0.8,2.8-0.1,19.6,0.3,20.7c0.2,0.6,2.6-0.5,3.7,0.6c2.1,2.3,10.7,2.3,10.7,1.4c0-6.4-0.4-22.6-0.5-26.2c0-0.5-0.4-0.9-0.9-1
		C150.3,363.1,149.3,363.3,149.2,363.4z"/>
	<path id="XMLID_6_" d="M169,393.1c2.6-1.7,3.1,12.6-14.1,15.1c-15.9,2.3-22.6-17.7-16.8-14.9C145.5,396.9,156.4,401.6,169,393.1z"
		/>
	<path id="XMLID_5_" d="M159.1,362.8c-0.3-0.2-1.5,0.5-2.3,1c-0.3,0.2-0.5,0.6-0.5,1c-0.1,3.2-0.4,19.3,0.4,26.1
		c0,0,2.3,1.7,11.7-1.9c1-12.6,2.1-18.5,1.4-18.9c-3.3-1.8-4.1-2-5.5-2.9C160.4,364.6,163.4,365.1,159.1,362.8z"/>
	<path id="XMLID_4_" d="M169.5,358.7c-0.5-1.1-6.2,0.5-5.9,3.4c0.1,1.2,1.3,1.7,4,1.7c1,0,1.9-0.7,2-1.7
		C169.8,361.1,169.9,359.7,169.5,358.7z"/>
	<path id="XMLID_3_" d="M192.5,331.6c0.1-0.6-0.5-1.1-1.2-1c-0.5,0.1-0.8-0.2-4.5,4.4c0,0.1-1.8,2.7-1.8,2.8c-1.5,2.3-2.6,4-5.1,7.3
		c-0.8,1-4.1,5.5-5.6,7.6c-0.4,0.5-0.6,1.2-0.6,1.8c-0.4,19.1-2.2,26.8-0.5,26.9c0.8,0,7.4-21.7,9.7-25.2c0.1-0.2,0.3-0.5,0.3-0.7
		C187.4,343.2,191.6,339.4,192.5,331.6z"/>
	<path id="XMLID_2_" d="M176.7,306.3c-0.1-0.5,14.3-11,22.3-18.2c0.6-0.6,3.5,0.5,4,7.1C203.7,305.1,177.1,309.9,176.7,306.3z"/>
	<path id="XMLID_1_" d="M203.5,303.3c-1.4-0.6-7.6,10.1-26.8,8.8c-0.6,0-1.1,0.4-1.2,1c-0.9,5.8-5.6,33.7-4.3,34.4
		c1.3,0.7,2.5-2.8,3.7-4.4c6.4-8.9,5.8-9,9.6-13.4c8.8-10.2,10.6-7.4,17-14.9C203.6,312.4,204.5,303.8,203.5,303.3z"/>
</g>
</svg>
